<svg width="18" height="20" viewBox="0 0 18 20" fill="none" xmlns="http://www.w3.org/2000/svg">
<path opacity="0.4" d="M15.625 8.75H14.6875V5.9375C14.6875 2.69531 11.9922 0 8.75 0C5.46875 0 2.8125 2.69531 2.8125 5.9375V8.75H1.875C0.820312 8.75 0 9.60938 0 10.625V18.125C0 19.1797 0.820312 20 1.875 20H15.625C16.6406 20 17.5 19.1797 17.5 18.125V10.625C17.5 9.60938 16.6406 8.75 15.625 8.75ZM11.5625 8.75H5.9375V5.9375C5.9375 4.41406 7.1875 3.125 8.75 3.125C10.2734 3.125 11.5625 4.41406 11.5625 5.9375V8.75Z" fill="#2C2929"/>
</svg>
