<svg width="24" height="24" viewBox="0 0 24 24" fill="none" xmlns="http://www.w3.org/2000/svg">
<g opacity="0.4">
<path d="M12 24C9.62663 24 7.30655 23.2962 5.33316 21.9776C3.35977 20.6591 1.8217 18.7849 0.913451 16.5922C0.00519941 14.3995 -0.232441 11.9867 0.230582 9.65892C0.693605 7.33115 1.83649 5.19295 3.51472 3.51472C5.19295 1.83649 7.33115 0.693605 9.65892 0.230582C11.9867 -0.232441 14.3995 0.00519941 16.5922 0.913451C18.7849 1.8217 20.6591 3.35977 21.9776 5.33316C23.2962 7.30655 24 9.62663 24 12C24 15.1826 22.7357 18.2348 20.4853 20.4853C18.2348 22.7357 15.1826 24 12 24ZM12 2.4C10.1013 2.4 8.24524 2.96304 6.66653 4.0179C5.08782 5.07276 3.85736 6.57207 3.13076 8.32624C2.40416 10.0804 2.21405 12.0107 2.58447 13.8729C2.95488 15.7351 3.8692 17.4456 5.21178 18.7882C6.55436 20.1308 8.26492 21.0451 10.1271 21.4155C11.9894 21.786 13.9196 21.5958 15.6738 20.8692C17.4279 20.1426 18.9272 18.9122 19.9821 17.3335C21.037 15.7548 21.6 13.8987 21.6 12C21.6 9.45393 20.5886 7.01213 18.7882 5.21178C16.9879 3.41143 14.5461 2.4 12 2.4Z" fill="#2C2929"/>
</g>
</svg>
