<svg width="20" height="20" viewBox="0 0 20 20" fill="none" xmlns="http://www.w3.org/2000/svg">
<path opacity="0.4" d="M10 11.25C13.0859 11.25 15.625 8.75 15.625 5.625C15.625 2.53906 13.0859 0 10 0C6.875 0 4.375 2.53906 4.375 5.625C4.375 8.75 6.875 11.25 10 11.25ZM15 12.5H12.8125C11.9531 12.9297 11.0156 13.125 10 13.125C8.98438 13.125 8.00781 12.9297 7.14844 12.5H5C2.22656 12.5 0 14.7656 0 17.5V18.125C0 19.1797 0.820312 20 1.875 20H18.125C19.1406 20 20 19.1797 20 18.125V17.5C20 14.7656 17.7344 12.5 15 12.5Z" fill="#2C2929"/>
</svg>
